<mxfile host="app.diagrams.net" agent="Mozilla/5.0 (Macintosh; Intel Mac OS X 10_15_7) AppleWebKit/537.36 (KHTML, like Gecko) Chrome/136.0.0.0 Safari/537.36" version="27.0.6">
  <diagram name="Page-1" id="5f0bae14-7c28-e335-631c-24af17079c00">
    <mxGraphModel dx="858" dy="676" grid="1" gridSize="10" guides="1" tooltips="1" connect="1" arrows="1" fold="1" page="1" pageScale="1" pageWidth="1100" pageHeight="850" background="none" math="0" shadow="0">
      <root>
        <mxCell id="0" />
        <mxCell id="1" parent="0" />
        <mxCell id="AbN5MHCMC_lVU2m8SJ03-1" value="Redis-Message Queue" style="verticalAlign=top;align=left;spacingTop=8;spacingLeft=2;spacingRight=12;shape=cube;size=10;direction=south;fontStyle=4;html=1;rounded=0;shadow=0;comic=0;labelBackgroundColor=none;strokeWidth=1;fontFamily=Verdana;fontSize=12" parent="1" vertex="1">
          <mxGeometry x="300" y="244.5" width="490" height="105.5" as="geometry" />
        </mxCell>
        <mxCell id="39150e848f15840c-1" value="Fission-Data Collection" style="verticalAlign=top;align=left;spacingTop=8;spacingLeft=2;spacingRight=12;shape=cube;size=10;direction=south;fontStyle=4;html=1;rounded=0;shadow=0;comic=0;labelBackgroundColor=none;strokeWidth=1;fontFamily=Verdana;fontSize=12" parent="1" vertex="1">
          <mxGeometry x="300" y="115" width="490" height="115" as="geometry" />
        </mxCell>
        <mxCell id="39150e848f15840c-3" value="Elastic-Database" style="verticalAlign=top;align=left;spacingTop=8;spacingLeft=2;spacingRight=12;shape=cube;size=10;direction=south;fontStyle=4;html=1;rounded=0;shadow=0;comic=0;labelBackgroundColor=none;strokeWidth=1;fontFamily=Verdana;fontSize=12" parent="1" vertex="1">
          <mxGeometry x="300" y="501" width="490" height="149" as="geometry" />
        </mxCell>
        <mxCell id="TCkhbXA5ivSU-JVrMtje-17" style="edgeStyle=orthogonalEdgeStyle;rounded=0;orthogonalLoop=1;jettySize=auto;html=1;entryX=0.5;entryY=1;entryDx=0;entryDy=0;exitX=0.5;exitY=0;exitDx=0;exitDy=0;" parent="1" source="TCkhbXA5ivSU-JVrMtje-2" target="TCkhbXA5ivSU-JVrMtje-16" edge="1">
          <mxGeometry relative="1" as="geometry" />
        </mxCell>
        <mxCell id="39150e848f15840c-4" value="Havestor&lt;div&gt;(Mastodon)&lt;/div&gt;" style="html=1;rounded=0;shadow=0;comic=0;labelBackgroundColor=none;strokeWidth=1;fontFamily=Verdana;fontSize=12;align=center;" parent="1" vertex="1">
          <mxGeometry x="340" y="155" width="110" height="50" as="geometry" />
        </mxCell>
        <mxCell id="TCkhbXA5ivSU-JVrMtje-1" value="Havestor&lt;div&gt;(Reddit)&lt;/div&gt;" style="html=1;rounded=0;shadow=0;comic=0;labelBackgroundColor=none;strokeWidth=1;fontFamily=Verdana;fontSize=12;align=center;" parent="1" vertex="1">
          <mxGeometry x="500" y="155" width="110" height="50" as="geometry" />
        </mxCell>
        <mxCell id="TCkhbXA5ivSU-JVrMtje-2" value="&lt;div&gt;&lt;span style=&quot;background-color: light-dark(#ffffff, var(--ge-dark-color, #121212));&quot;&gt;&amp;lt;&amp;lt;component&amp;gt;&amp;gt;&lt;/span&gt;&lt;/div&gt;&lt;div&gt;&lt;span style=&quot;background-color: light-dark(#ffffff, var(--ge-dark-color, #121212));&quot;&gt;Harvester (M)&lt;/span&gt;&lt;/div&gt;" style="html=1;rounded=0;shadow=0;comic=0;labelBackgroundColor=none;strokeWidth=1;fontFamily=Verdana;fontSize=12;align=center;" parent="1" vertex="1">
          <mxGeometry x="350" y="165" width="110" height="55" as="geometry" />
        </mxCell>
        <mxCell id="TCkhbXA5ivSU-JVrMtje-3" value="&lt;span style=&quot;background-color: light-dark(#ffffff, var(--ge-dark-color, #121212));&quot;&gt;&amp;lt;&amp;lt;component&amp;gt;&amp;gt;&lt;/span&gt;&lt;div&gt;&lt;span style=&quot;background-color: light-dark(#ffffff, var(--ge-dark-color, #121212));&quot;&gt;Harvester (R)&lt;/span&gt;&lt;/div&gt;" style="html=1;rounded=0;shadow=0;comic=0;labelBackgroundColor=none;strokeWidth=1;fontFamily=Verdana;fontSize=12;align=center;" parent="1" vertex="1">
          <mxGeometry x="510" y="165" width="110" height="55" as="geometry" />
        </mxCell>
        <mxCell id="TCkhbXA5ivSU-JVrMtje-8" value="&lt;span style=&quot;background-color: light-dark(#ffffff, var(--ge-dark-color, #121212));&quot;&gt;&amp;lt;&amp;lt;component&amp;gt;&amp;gt;&lt;/span&gt;&lt;div&gt;&lt;span style=&quot;background-color: light-dark(#ffffff, var(--ge-dark-color, #121212));&quot;&gt;Kibana&lt;/span&gt;&lt;/div&gt;" style="html=1;rounded=0;shadow=0;comic=0;labelBackgroundColor=none;strokeWidth=1;fontFamily=Verdana;fontSize=12;align=center;" parent="1" vertex="1">
          <mxGeometry x="630" y="566" width="110" height="50" as="geometry" />
        </mxCell>
        <mxCell id="TCkhbXA5ivSU-JVrMtje-9" value="&amp;lt;&amp;lt;actor&amp;gt;&amp;gt;&lt;div&gt;User&lt;/div&gt;" style="shape=umlActor;verticalLabelPosition=bottom;verticalAlign=top;html=1;outlineConnect=0;" parent="1" vertex="1">
          <mxGeometry x="980" y="551" width="30" height="50" as="geometry" />
        </mxCell>
        <mxCell id="TCkhbXA5ivSU-JVrMtje-12" value="" style="shape=cylinder3;whiteSpace=wrap;html=1;boundedLbl=1;backgroundOutline=1;size=15;" parent="1" vertex="1">
          <mxGeometry x="340" y="551" width="110" height="60" as="geometry" />
        </mxCell>
        <mxCell id="TCkhbXA5ivSU-JVrMtje-13" value="&lt;span&gt;Elastic Search&lt;/span&gt;" style="shape=cylinder3;whiteSpace=wrap;html=1;boundedLbl=1;backgroundOutline=1;size=15;" parent="1" vertex="1">
          <mxGeometry x="350" y="561" width="110" height="60" as="geometry" />
        </mxCell>
        <mxCell id="TCkhbXA5ivSU-JVrMtje-15" value="&amp;lt;&amp;lt;external&amp;gt;&amp;gt;&lt;div&gt;Reddit API&lt;/div&gt;" style="html=1;rounded=0;shadow=0;comic=0;labelBackgroundColor=none;strokeWidth=1;fontFamily=Verdana;fontSize=12;align=center;" parent="1" vertex="1">
          <mxGeometry x="502" y="35" width="110" height="50" as="geometry" />
        </mxCell>
        <mxCell id="TCkhbXA5ivSU-JVrMtje-16" value="&lt;div&gt;&lt;span style=&quot;background-color: light-dark(#ffffff, var(--ge-dark-color, #121212));&quot;&gt;&amp;lt;&amp;lt;external&amp;gt;&amp;gt;&amp;nbsp;&lt;/span&gt;&lt;/div&gt;&lt;div&gt;&lt;span style=&quot;background-color: light-dark(#ffffff, var(--ge-dark-color, #121212));&quot;&gt;Mastodon API&lt;/span&gt;&lt;/div&gt;" style="html=1;rounded=0;shadow=0;comic=0;labelBackgroundColor=none;strokeWidth=1;fontFamily=Verdana;fontSize=12;align=center;" parent="1" vertex="1">
          <mxGeometry x="350" y="35" width="110" height="50" as="geometry" />
        </mxCell>
        <mxCell id="TCkhbXA5ivSU-JVrMtje-18" style="edgeStyle=orthogonalEdgeStyle;rounded=0;orthogonalLoop=1;jettySize=auto;html=1;entryX=0.573;entryY=1.03;entryDx=0;entryDy=0;entryPerimeter=0;" parent="1" source="TCkhbXA5ivSU-JVrMtje-3" target="TCkhbXA5ivSU-JVrMtje-15" edge="1">
          <mxGeometry relative="1" as="geometry" />
        </mxCell>
        <mxCell id="TCkhbXA5ivSU-JVrMtje-21" value="&lt;span&gt;Jupyter Notebook&lt;/span&gt;" style="rounded=0;whiteSpace=wrap;html=1;" parent="1" vertex="1">
          <mxGeometry x="820" y="523" width="140" height="47" as="geometry" />
        </mxCell>
        <mxCell id="TCkhbXA5ivSU-JVrMtje-31" style="edgeStyle=orthogonalEdgeStyle;rounded=0;orthogonalLoop=1;jettySize=auto;html=1;exitX=0;exitY=0.5;exitDx=0;exitDy=0;entryX=1;entryY=0.5;entryDx=0;entryDy=0;entryPerimeter=0;" parent="1" source="TCkhbXA5ivSU-JVrMtje-8" target="TCkhbXA5ivSU-JVrMtje-13" edge="1">
          <mxGeometry relative="1" as="geometry" />
        </mxCell>
        <mxCell id="TCkhbXA5ivSU-JVrMtje-36" value="&lt;span style=&quot;background-color: light-dark(#ffffff, var(--ge-dark-color, #121212));&quot;&gt;&amp;lt;&amp;lt;external&amp;gt;&amp;gt;&lt;/span&gt;&lt;div&gt;&lt;span style=&quot;background-color: light-dark(#ffffff, var(--ge-dark-color, #121212));&quot;&gt;BlueSky API&lt;/span&gt;&lt;/div&gt;" style="html=1;rounded=0;shadow=0;comic=0;labelBackgroundColor=none;strokeWidth=1;fontFamily=Verdana;fontSize=12;align=center;" parent="1" vertex="1">
          <mxGeometry x="650" y="35" width="110" height="50" as="geometry" />
        </mxCell>
        <mxCell id="TCkhbXA5ivSU-JVrMtje-19" value="&lt;span&gt;&amp;lt;&amp;lt;component&amp;gt;&amp;gt; Message Queue, CheckPoint&lt;/span&gt;" style="shape=cylinder3;whiteSpace=wrap;html=1;boundedLbl=1;backgroundOutline=1;size=15;" parent="1" vertex="1">
          <mxGeometry x="340" y="280" width="390" height="60" as="geometry" />
        </mxCell>
        <mxCell id="TCkhbXA5ivSU-JVrMtje-41" value="" style="rounded=0;whiteSpace=wrap;html=1;" parent="1" vertex="1">
          <mxGeometry x="500" y="380" width="110" height="50" as="geometry" />
        </mxCell>
        <mxCell id="TCkhbXA5ivSU-JVrMtje-40" value="Analytic" style="rounded=0;whiteSpace=wrap;html=1;" parent="1" vertex="1">
          <mxGeometry x="510" y="390" width="110" height="50" as="geometry" />
        </mxCell>
        <mxCell id="TCkhbXA5ivSU-JVrMtje-44" style="edgeStyle=orthogonalEdgeStyle;rounded=0;orthogonalLoop=1;jettySize=auto;html=1;exitX=0.5;exitY=1;exitDx=0;exitDy=0;" parent="1" source="TCkhbXA5ivSU-JVrMtje-2" edge="1">
          <mxGeometry relative="1" as="geometry">
            <mxPoint x="410" y="290" as="targetPoint" />
          </mxGeometry>
        </mxCell>
        <mxCell id="TCkhbXA5ivSU-JVrMtje-45" style="edgeStyle=orthogonalEdgeStyle;rounded=0;orthogonalLoop=1;jettySize=auto;html=1;exitX=0.5;exitY=1;exitDx=0;exitDy=0;entryX=0.5;entryY=0;entryDx=0;entryDy=0;entryPerimeter=0;" parent="1" source="TCkhbXA5ivSU-JVrMtje-3" target="TCkhbXA5ivSU-JVrMtje-19" edge="1">
          <mxGeometry relative="1" as="geometry">
            <mxPoint x="566" y="270" as="targetPoint" />
          </mxGeometry>
        </mxCell>
        <mxCell id="TCkhbXA5ivSU-JVrMtje-49" style="edgeStyle=orthogonalEdgeStyle;rounded=0;orthogonalLoop=1;jettySize=auto;html=1;exitX=0;exitY=0.5;exitDx=0;exitDy=0;entryX=1;entryY=0.5;entryDx=0;entryDy=0;" parent="1" source="TCkhbXA5ivSU-JVrMtje-48" target="TCkhbXA5ivSU-JVrMtje-8" edge="1">
          <mxGeometry relative="1" as="geometry">
            <Array as="points">
              <mxPoint x="800" y="611" />
              <mxPoint x="800" y="591" />
            </Array>
          </mxGeometry>
        </mxCell>
        <mxCell id="TCkhbXA5ivSU-JVrMtje-48" value="&lt;span&gt;Browser&lt;/span&gt;" style="rounded=0;whiteSpace=wrap;html=1;" parent="1" vertex="1">
          <mxGeometry x="820" y="590" width="140" height="42" as="geometry" />
        </mxCell>
        <mxCell id="TCkhbXA5ivSU-JVrMtje-51" value="Prometheus-Monitor" style="verticalAlign=top;align=left;spacingTop=8;spacingLeft=2;spacingRight=12;shape=cube;size=10;direction=south;fontStyle=4;html=1;whiteSpace=wrap;" parent="1" vertex="1">
          <mxGeometry x="820" y="250" width="140" height="197" as="geometry" />
        </mxCell>
        <mxCell id="TCkhbXA5ivSU-JVrMtje-52" value="&lt;span style=&quot;background-color: light-dark(#ffffff, var(--ge-dark-color, #121212));&quot;&gt;&amp;lt;&amp;lt;component&amp;gt;&amp;gt;&lt;/span&gt;&lt;div&gt;&lt;span style=&quot;background-color: light-dark(#ffffff, var(--ge-dark-color, #121212));&quot;&gt;Prometheus&lt;/span&gt;&lt;/div&gt;" style="rounded=0;whiteSpace=wrap;html=1;" parent="1" vertex="1">
          <mxGeometry x="830" y="295" width="110" height="60" as="geometry" />
        </mxCell>
        <mxCell id="TCkhbXA5ivSU-JVrMtje-54" value="&lt;span style=&quot;background-color: light-dark(#ffffff, var(--ge-dark-color, #121212));&quot;&gt;&amp;lt;&amp;lt;component&amp;gt;&amp;gt;&lt;/span&gt;&lt;div&gt;&lt;span style=&quot;background-color: light-dark(#ffffff, var(--ge-dark-color, #121212));&quot;&gt;Grafana&lt;/span&gt;&lt;/div&gt;" style="rounded=0;whiteSpace=wrap;html=1;" parent="1" vertex="1">
          <mxGeometry x="830" y="368" width="110" height="60" as="geometry" />
        </mxCell>
        <mxCell id="AbN5MHCMC_lVU2m8SJ03-2" value="Fission-Info Extraction, FastAPI API Gateway" style="verticalAlign=top;align=left;spacingTop=8;spacingLeft=2;spacingRight=12;shape=cube;size=10;direction=south;fontStyle=4;html=1;rounded=0;shadow=0;comic=0;labelBackgroundColor=none;strokeWidth=1;fontFamily=Verdana;fontSize=12" parent="1" vertex="1">
          <mxGeometry x="300" y="365.25" width="490" height="117.75" as="geometry" />
        </mxCell>
        <mxCell id="AbN5MHCMC_lVU2m8SJ03-3" value="Processor" style="html=1;rounded=0;shadow=0;comic=0;labelBackgroundColor=none;strokeWidth=1;fontFamily=Verdana;fontSize=12;align=center;" parent="1" vertex="1">
          <mxGeometry x="350" y="405" width="110" height="55" as="geometry" />
        </mxCell>
        <mxCell id="AbN5MHCMC_lVU2m8SJ03-4" value="Analyser API" style="html=1;rounded=0;shadow=0;comic=0;labelBackgroundColor=none;strokeWidth=1;fontFamily=Verdana;fontSize=12;align=center;" parent="1" vertex="1">
          <mxGeometry x="510" y="405" width="110" height="55" as="geometry" />
        </mxCell>
        <mxCell id="AbN5MHCMC_lVU2m8SJ03-5" value="&lt;span style=&quot;background-color: light-dark(#ffffff, var(--ge-dark-color, #121212));&quot;&gt;&amp;lt;&amp;lt;component&amp;gt;&amp;gt;&lt;/span&gt;&lt;div&gt;&lt;span style=&quot;background-color: light-dark(#ffffff, var(--ge-dark-color, #121212));&quot;&gt;Pre-Processor&lt;/span&gt;&lt;/div&gt;" style="html=1;rounded=0;shadow=0;comic=0;labelBackgroundColor=none;strokeWidth=1;fontFamily=Verdana;fontSize=12;align=center;" parent="1" vertex="1">
          <mxGeometry x="360" y="415" width="110" height="55" as="geometry" />
        </mxCell>
        <mxCell id="AbN5MHCMC_lVU2m8SJ03-14" style="edgeStyle=orthogonalEdgeStyle;rounded=0;orthogonalLoop=1;jettySize=auto;html=1;exitX=0.75;exitY=1;exitDx=0;exitDy=0;entryX=0.8;entryY=0.017;entryDx=0;entryDy=0;entryPerimeter=0;" parent="1" source="AbN5MHCMC_lVU2m8SJ03-5" target="TCkhbXA5ivSU-JVrMtje-12" edge="1">
          <mxGeometry relative="1" as="geometry">
            <Array as="points">
              <mxPoint x="428" y="470" />
            </Array>
          </mxGeometry>
        </mxCell>
        <mxCell id="AbN5MHCMC_lVU2m8SJ03-15" style="edgeStyle=orthogonalEdgeStyle;rounded=0;orthogonalLoop=1;jettySize=auto;html=1;exitX=0.5;exitY=1;exitDx=0;exitDy=0;entryX=0.918;entryY=0.167;entryDx=0;entryDy=0;entryPerimeter=0;" parent="1" target="TCkhbXA5ivSU-JVrMtje-13" edge="1">
          <mxGeometry relative="1" as="geometry">
            <Array as="points">
              <mxPoint x="575" y="530" />
              <mxPoint x="451" y="530" />
            </Array>
            <mxPoint x="575" y="470" as="sourcePoint" />
          </mxGeometry>
        </mxCell>
        <mxCell id="AbN5MHCMC_lVU2m8SJ03-17" style="edgeStyle=orthogonalEdgeStyle;rounded=0;orthogonalLoop=1;jettySize=auto;html=1;entryX=0.145;entryY=1;entryDx=0;entryDy=-4.35;entryPerimeter=0;" parent="1" source="AbN5MHCMC_lVU2m8SJ03-5" target="TCkhbXA5ivSU-JVrMtje-19" edge="1">
          <mxGeometry relative="1" as="geometry" />
        </mxCell>
        <mxCell id="HJtoMxynJ-292qST292O-1" value="Havestor&lt;div&gt;(Reddit)&lt;/div&gt;" style="html=1;rounded=0;shadow=0;comic=0;labelBackgroundColor=none;strokeWidth=1;fontFamily=Verdana;fontSize=12;align=center;" parent="1" vertex="1">
          <mxGeometry x="647" y="154" width="110" height="55" as="geometry" />
        </mxCell>
        <mxCell id="HJtoMxynJ-292qST292O-3" style="edgeStyle=orthogonalEdgeStyle;rounded=0;orthogonalLoop=1;jettySize=auto;html=1;entryX=0.5;entryY=1;entryDx=0;entryDy=0;" parent="1" source="HJtoMxynJ-292qST292O-2" target="TCkhbXA5ivSU-JVrMtje-36" edge="1">
          <mxGeometry relative="1" as="geometry" />
        </mxCell>
        <mxCell id="HJtoMxynJ-292qST292O-2" value="&lt;span style=&quot;background-color: light-dark(#ffffff, var(--ge-dark-color, #121212));&quot;&gt;&amp;lt;&amp;lt;component&amp;gt;&amp;gt;&lt;/span&gt;&lt;div&gt;&lt;span style=&quot;background-color: light-dark(#ffffff, var(--ge-dark-color, #121212));&quot;&gt;Harvester PoC&lt;/span&gt;&lt;/div&gt;" style="html=1;rounded=0;shadow=0;comic=0;labelBackgroundColor=none;strokeWidth=1;fontFamily=Verdana;fontSize=12;align=center;" parent="1" vertex="1">
          <mxGeometry x="657" y="164" width="110" height="55" as="geometry" />
        </mxCell>
        <mxCell id="HJtoMxynJ-292qST292O-6" value="&lt;span style=&quot;background-color: light-dark(#ffffff, var(--ge-dark-color, #121212));&quot;&gt;&amp;lt;&amp;lt;component&amp;gt;&amp;gt;&lt;/span&gt;&lt;div&gt;&lt;span style=&quot;background-color: light-dark(#ffffff, var(--ge-dark-color, #121212));&quot;&gt;Machine Learning&lt;/span&gt;&lt;/div&gt;" style="html=1;rounded=0;shadow=0;comic=0;labelBackgroundColor=none;strokeWidth=1;fontFamily=Verdana;fontSize=12;align=center;" parent="1" vertex="1">
          <mxGeometry x="502" y="543" width="110" height="40" as="geometry" />
        </mxCell>
        <mxCell id="HJtoMxynJ-292qST292O-7" value="Keda-AutoScale" style="verticalAlign=top;align=left;spacingTop=8;spacingLeft=2;spacingRight=12;shape=cube;size=10;direction=south;fontStyle=4;html=1;whiteSpace=wrap;" parent="1" vertex="1">
          <mxGeometry x="820" y="120" width="140" height="110" as="geometry" />
        </mxCell>
        <mxCell id="HJtoMxynJ-292qST292O-8" value="&lt;span style=&quot;background-color: light-dark(#ffffff, var(--ge-dark-color, #121212));&quot;&gt;&amp;lt;&amp;lt;component&amp;gt;&amp;gt;&lt;/span&gt;&lt;div&gt;&lt;span style=&quot;background-color: light-dark(#ffffff, var(--ge-dark-color, #121212));&quot;&gt;Keda&lt;/span&gt;&lt;/div&gt;" style="rounded=0;whiteSpace=wrap;html=1;" parent="1" vertex="1">
          <mxGeometry x="830" y="160" width="110" height="60" as="geometry" />
        </mxCell>
        <mxCell id="iDRLSFPcF_4tArX7yn6n-4" style="edgeStyle=orthogonalEdgeStyle;rounded=0;orthogonalLoop=1;jettySize=auto;html=1;exitX=0;exitY=0.5;exitDx=0;exitDy=0;entryX=1;entryY=0.5;entryDx=0;entryDy=0;entryPerimeter=0;" parent="1" source="HJtoMxynJ-292qST292O-8" target="TCkhbXA5ivSU-JVrMtje-19" edge="1">
          <mxGeometry relative="1" as="geometry">
            <Array as="points">
              <mxPoint x="800" y="190" />
              <mxPoint x="800" y="310" />
            </Array>
          </mxGeometry>
        </mxCell>
        <mxCell id="z4RHcq7owLTL18a-vivl-1" style="edgeStyle=orthogonalEdgeStyle;rounded=0;orthogonalLoop=1;jettySize=auto;html=1;exitX=0;exitY=0.5;exitDx=0;exitDy=0;entryX=1;entryY=0;entryDx=0;entryDy=15;entryPerimeter=0;" parent="1" source="HJtoMxynJ-292qST292O-6" target="TCkhbXA5ivSU-JVrMtje-13" edge="1">
          <mxGeometry relative="1" as="geometry" />
        </mxCell>
        <mxCell id="z4RHcq7owLTL18a-vivl-2" value="&amp;lt;&amp;lt;component&amp;gt;&amp;gt;&lt;div&gt;Analyser API&lt;/div&gt;" style="html=1;rounded=0;shadow=0;comic=0;labelBackgroundColor=none;strokeWidth=1;fontFamily=Verdana;fontSize=12;align=center;" parent="1" vertex="1">
          <mxGeometry x="520" y="415" width="110" height="55" as="geometry" />
        </mxCell>
        <mxCell id="z4RHcq7owLTL18a-vivl-4" style="edgeStyle=orthogonalEdgeStyle;rounded=0;orthogonalLoop=1;jettySize=auto;html=1;exitX=0;exitY=0.5;exitDx=0;exitDy=0;entryX=1;entryY=0.5;entryDx=0;entryDy=0;" parent="1" source="TCkhbXA5ivSU-JVrMtje-21" target="z4RHcq7owLTL18a-vivl-2" edge="1">
          <mxGeometry relative="1" as="geometry" />
        </mxCell>
        <mxCell id="z4RHcq7owLTL18a-vivl-5" style="edgeStyle=orthogonalEdgeStyle;rounded=0;orthogonalLoop=1;jettySize=auto;html=1;entryX=1;entryY=0.25;entryDx=0;entryDy=0;" parent="1" source="TCkhbXA5ivSU-JVrMtje-52" target="z4RHcq7owLTL18a-vivl-2" edge="1">
          <mxGeometry relative="1" as="geometry">
            <Array as="points">
              <mxPoint x="800" y="325" />
              <mxPoint x="800" y="429" />
            </Array>
          </mxGeometry>
        </mxCell>
        <mxCell id="WUt4P14ImSylwgttAg9f-2" style="edgeStyle=orthogonalEdgeStyle;rounded=0;orthogonalLoop=1;jettySize=auto;html=1;entryX=0.855;entryY=0;entryDx=0;entryDy=4.35;entryPerimeter=0;" parent="1" source="HJtoMxynJ-292qST292O-2" target="TCkhbXA5ivSU-JVrMtje-19" edge="1">
          <mxGeometry relative="1" as="geometry" />
        </mxCell>
        <mxCell id="WUt4P14ImSylwgttAg9f-5" style="edgeStyle=orthogonalEdgeStyle;rounded=0;orthogonalLoop=1;jettySize=auto;html=1;exitX=0;exitY=0.5;exitDx=0;exitDy=0;entryX=0;entryY=0.5;entryDx=0;entryDy=0;" parent="1" source="TCkhbXA5ivSU-JVrMtje-48" target="TCkhbXA5ivSU-JVrMtje-54" edge="1">
          <mxGeometry relative="1" as="geometry">
            <Array as="points">
              <mxPoint x="810" y="611" />
              <mxPoint x="810" y="398" />
            </Array>
          </mxGeometry>
        </mxCell>
        <mxCell id="WUt4P14ImSylwgttAg9f-6" style="edgeStyle=orthogonalEdgeStyle;rounded=0;orthogonalLoop=1;jettySize=auto;html=1;entryX=0.5;entryY=1;entryDx=0;entryDy=0;entryPerimeter=0;" parent="1" source="TCkhbXA5ivSU-JVrMtje-21" target="TCkhbXA5ivSU-JVrMtje-13" edge="1">
          <mxGeometry relative="1" as="geometry">
            <Array as="points">
              <mxPoint x="760" y="547" />
              <mxPoint x="760" y="640" />
              <mxPoint x="405" y="640" />
            </Array>
          </mxGeometry>
        </mxCell>
      </root>
    </mxGraphModel>
  </diagram>
</mxfile>
